<?xml version="1.0" encoding="UTF-8"?><svg xmlns="http://www.w3.org/2000/svg" xmlns:xlink="http://www.w3.org/1999/xlink" width="37.5" zoomAndPan="magnify" viewBox="0 0 37.5 37.499999" height="37.499999" preserveAspectRatio="xMidYMid meet" version="1.0"><defs><clipPath id="clip-0"><path d="M 31 23 L 34.484375 23 L 34.484375 24 L 31 24 Z M 31 23 " clip-rule="nonzero"/></clipPath><clipPath id="clip-1"><path d="M 22 17 L 32 17 L 32 33.355469 L 22 33.355469 Z M 22 17 " clip-rule="nonzero"/></clipPath><clipPath id="clip-2"><path d="M 3 4.105469 L 34.484375 4.105469 L 34.484375 31 L 3 31 Z M 3 4.105469 " clip-rule="nonzero"/></clipPath></defs><g clip-path="url(#clip-0)"><path stroke-linecap="round" transform="matrix(0.245704, 0, 0, 0.245592, 3.008529, 2.879)" fill="none" stroke-linejoin="round" d="M 117.007664 84.998348 L 126.006032 84.998348 " stroke="rgb(39.219666%, 39.219666%, 39.219666%)" stroke-width="2" stroke-opacity="1" stroke-miterlimit="10"/></g><path stroke-linecap="round" transform="matrix(0.245704, 0, 0, 0.245592, 3.008529, 2.879)" fill-opacity="1" fill="rgb(0%, 0%, 0%)" fill-rule="nonzero" stroke-linejoin="round" d="M 115.004494 11.992328 L 120.998106 11.992328 L 120.998106 79.001993 L 117.007664 79.001993 " stroke="rgb(39.219666%, 39.219666%, 39.219666%)" stroke-width="2" stroke-opacity="1" stroke-miterlimit="10"/><g clip-path="url(#clip-1)"><path fill="rgb(0%, 0%, 0%)" d="M 30.28125 17.492188 L 24.410156 17.492188 C 23.449219 17.492188 22.664062 18.277344 22.664062 19.234375 L 22.664062 31.492188 C 22.664062 32.449219 23.449219 33.355469 24.410156 33.355469 L 30.257812 33.285156 C 31.214844 33.285156 32 32.472656 32 31.515625 L 32 19.261719 C 32.027344 18.277344 31.238281 17.492188 30.28125 17.492188 Z M 26.84375 18.351562 L 27.875 18.351562 C 28.144531 18.351562 28.363281 18.574219 28.363281 18.84375 C 28.363281 19.113281 28.144531 19.332031 27.875 19.332031 L 26.84375 19.332031 C 26.570312 19.332031 26.351562 19.113281 26.351562 18.84375 C 26.351562 18.574219 26.570312 18.351562 26.84375 18.351562 Z M 25.046875 18.402344 C 25.246094 18.226562 25.5625 18.226562 25.734375 18.402344 C 25.835938 18.5 25.882812 18.621094 25.882812 18.746094 C 25.882812 18.867188 25.835938 18.988281 25.734375 19.089844 C 25.636719 19.1875 25.515625 19.234375 25.390625 19.234375 C 25.269531 19.234375 25.144531 19.1875 25.046875 19.089844 C 24.949219 18.988281 24.902344 18.867188 24.902344 18.746094 C 24.902344 18.621094 24.949219 18.472656 25.046875 18.402344 Z M 27.359375 32.71875 C 26.941406 32.71875 26.621094 32.398438 26.621094 31.980469 C 26.621094 31.5625 26.941406 31.246094 27.359375 31.246094 C 27.777344 31.246094 28.09375 31.5625 28.09375 31.980469 C 28.09375 32.398438 27.75 32.71875 27.359375 32.71875 Z M 31.019531 30.632812 C 31.019531 30.777344 30.921875 30.875 30.773438 30.875 L 23.894531 30.875 C 23.746094 30.875 23.648438 30.777344 23.648438 30.632812 L 23.648438 20.316406 C 23.648438 20.167969 23.746094 20.070312 23.894531 20.070312 L 30.773438 20.070312 C 30.921875 20.070312 31.019531 20.167969 31.019531 20.316406 Z M 31.019531 30.632812 " fill-opacity="1" fill-rule="nonzero"/></g><g clip-path="url(#clip-2)"><path fill="rgb(0%, 0%, 0%)" d="M 32.222656 4.105469 L 5.246094 4.105469 C 4.015625 4.105469 3.007812 5.039062 3.007812 6.269531 L 3.007812 24.6875 C 3.007812 25.914062 4.015625 26.945312 5.246094 26.945312 L 14.066406 26.945312 L 14.066406 29.15625 L 12.34375 29.15625 C 12.199219 29.15625 12.097656 29.15625 12.097656 29.28125 L 12.097656 30.238281 C 12.097656 30.386719 12.199219 30.605469 12.34375 30.605469 L 23.15625 30.605469 L 23.15625 22.035156 L 4.972656 22.035156 L 4.972656 6.070312 L 32.492188 6.070312 L 32.492188 22.035156 L 31.265625 22.035156 L 31.265625 26.945312 L 32.222656 26.945312 C 33.453125 26.945312 34.457031 25.890625 34.457031 24.664062 L 34.457031 6.316406 C 34.457031 5.089844 33.453125 4.105469 32.222656 4.105469 Z M 18.710938 23.605469 C 19.125 23.605469 19.445312 23.925781 19.445312 24.34375 C 19.445312 24.761719 19.125 25.082031 18.710938 25.082031 C 18.292969 25.082031 17.972656 24.761719 17.972656 24.34375 C 17.972656 23.949219 18.292969 23.605469 18.710938 23.605469 Z M 18.710938 23.605469 " fill-opacity="1" fill-rule="nonzero"/></g></svg>