<svg width="33" height="32" viewBox="0 0 33 32" fill="none" xmlns="http://www.w3.org/2000/svg">
<path d="M1.5 28H27.5C28.327 28 29 27.327 29 26.5V1.5C29 0.673 28.327 0 27.5 0H1.5C0.673 0 0 0.673 0 1.5V26.5C0 27.327 0.673 28 1.5 28ZM1 1.5C1 1.36739 1.05268 1.24021 1.14645 1.14645C1.24021 1.05268 1.36739 1 1.5 1H27.5C27.6326 1 27.7598 1.05268 27.8536 1.14645C27.9473 1.24021 28 1.36739 28 1.5V26.5C28 26.6326 27.9473 26.7598 27.8536 26.8536C27.7598 26.9473 27.6326 27 27.5 27H1.5C1.36739 27 1.24021 26.9473 1.14645 26.8536C1.05268 26.7598 1 26.6326 1 26.5V1.5Z" fill="#111111"/>
<path d="M18 11C19.103 11 20 10.103 20 9C20 7.897 19.103 7 18 7C16.897 7 16 7.897 16 9C16 10.103 16.897 11 18 11ZM18 8C18.1981 7.9998 18.3917 8.05837 18.5565 8.16828C18.7213 8.2782 18.8497 8.43452 18.9256 8.61747C19.0015 8.80042 19.0214 9.00177 18.9828 9.19604C18.9442 9.39031 18.8489 9.56876 18.7088 9.70881C18.5688 9.84887 18.3903 9.94422 18.196 9.98281C18.0018 10.0214 17.8004 10.0015 17.6175 9.92561C17.4345 9.84972 17.2782 9.72127 17.1683 9.5565C17.0584 9.39173 16.9998 9.19806 17 9C17 8.449 17.448 8 18 8Z" fill="#111111"/>
<path d="M3.5 23H25.5C25.6326 23 25.7598 22.9473 25.8536 22.8536C25.9473 22.7598 26 22.6326 26 22.5V3.5C26 3.36739 25.9473 3.24021 25.8536 3.14645C25.7598 3.05268 25.6326 3 25.5 3H3.5C3.36739 3 3.24021 3.05268 3.14645 3.14645C3.05268 3.24021 3 3.36739 3 3.5V22.5C3 22.6326 3.05268 22.7598 3.14645 22.8536C3.24021 22.9473 3.36739 23 3.5 23ZM4 22V17.362C4.022 17.346 4.047 17.337 4.067 17.317L9.183 12.201C9.31395 12.076 9.488 12.0063 9.669 12.0063C9.85 12.0063 10.024 12.076 10.155 12.201L17.676 19.722C17.7681 19.8149 17.8931 19.8678 18.0239 19.8693C18.1547 19.8708 18.2808 19.8207 18.375 19.73L22.241 16.058C22.3047 15.9939 22.3804 15.9431 22.4638 15.9084C22.5472 15.8737 22.6367 15.8559 22.727 15.856C22.911 15.856 23.082 15.928 23.191 16.034L25 18.093V22H4ZM25 4V16.581L23.919 15.353C23.7632 15.1957 23.5777 15.0709 23.3732 14.9859C23.1687 14.9009 22.9494 14.8574 22.728 14.858H22.727C22.5072 14.857 22.2894 14.8995 22.0861 14.9829C21.8827 15.0663 21.6978 15.189 21.542 15.344L18.038 18.672L10.862 11.495C10.223 10.857 9.113 10.858 8.476 11.495L4 15.971V4H25Z" fill="#111111"/>
<path d="M4.5 29.083C4.36739 29.083 4.24021 29.1357 4.14645 29.2294C4.05268 29.3232 4 29.4504 4 29.583V30.5C4 31.327 4.673 32 5.5 32H31.5C32.327 32 33 31.327 33 30.5V4.5C33 3.673 32.327 3 31.5 3H30.583C30.4504 3 30.3232 3.05268 30.2294 3.14645C30.1357 3.24021 30.083 3.36739 30.083 3.5C30.083 3.63261 30.1357 3.75979 30.2294 3.85355C30.3232 3.94732 30.4504 4 30.583 4H31.5C31.6326 4 31.7598 4.05268 31.8536 4.14645C31.9473 4.24021 32 4.36739 32 4.5V30.5C32 30.6326 31.9473 30.7598 31.8536 30.8536C31.7598 30.9473 31.6326 31 31.5 31H5.5C5.36739 31 5.24021 30.9473 5.14645 30.8536C5.05268 30.7598 5 30.6326 5 30.5V29.583C5 29.4504 4.94732 29.3232 4.85355 29.2294C4.75979 29.1357 4.63261 29.083 4.5 29.083Z" fill="#111111"/>
</svg>
