<svg width="37" height="32" viewBox="0 0 37 32" fill="none" xmlns="http://www.w3.org/2000/svg">
<path d="M7.5 0H1.5C0.631 0 0 0.631 0 1.5V30.5C0 31.369 0.631 32 1.5 32H35.5C36.369 32 37 31.369 37 30.5V1.5C37 0.631 36.369 0 35.5 0H7.5ZM1 30.5V1.5C1 1.187 1.187 1 1.5 1H7V31H1.5C1.187 31 1 30.813 1 30.5ZM8 31V1H29V31H8ZM36 1.5V30.5C36 30.813 35.813 31 35.5 31H30V1H35.5C35.813 1 36 1.187 36 1.5Z" fill="#111111"/>
<path d="M14.777 10.084C14.7016 10.0338 14.6139 10.005 14.5234 10.0006C14.433 9.99623 14.343 10.0164 14.263 10.059C14.1835 10.102 14.1171 10.1657 14.0708 10.2433C14.0246 10.3209 14.0001 10.4096 14 10.5V22.5C14 22.5904 14.0246 22.6792 14.0711 22.7568C14.1176 22.8343 14.1843 22.8979 14.264 22.9405C14.3437 22.9832 14.4336 23.0035 14.5239 22.9992C14.6142 22.9948 14.7017 22.9661 14.777 22.916L23.777 16.916C23.8453 16.8702 23.9012 16.8083 23.9399 16.7357C23.9786 16.6632 23.9988 16.5822 23.9988 16.5C23.9988 16.4178 23.9786 16.3368 23.9399 16.2643C23.9012 16.1917 23.8453 16.1298 23.777 16.084L14.777 10.084V10.084ZM15 21.566V11.434L22.599 16.5L15 21.566ZM5 8H3C2.86739 8 2.74021 8.05268 2.64645 8.14645C2.55268 8.24021 2.5 8.36739 2.5 8.5C2.5 8.63261 2.55268 8.75979 2.64645 8.85355C2.74021 8.94732 2.86739 9 3 9H5C5.13261 9 5.25979 8.94732 5.35355 8.85355C5.44732 8.75979 5.5 8.63261 5.5 8.5C5.5 8.36739 5.44732 8.24021 5.35355 8.14645C5.25979 8.05268 5.13261 8 5 8ZM3 5H5C5.13261 5 5.25979 4.94732 5.35355 4.85355C5.44732 4.75979 5.5 4.63261 5.5 4.5C5.5 4.36739 5.44732 4.24021 5.35355 4.14645C5.25979 4.05268 5.13261 4 5 4H3C2.86739 4 2.74021 4.05268 2.64645 4.14645C2.55268 4.24021 2.5 4.36739 2.5 4.5C2.5 4.63261 2.55268 4.75979 2.64645 4.85355C2.74021 4.94732 2.86739 5 3 5ZM5 12H3C2.86739 12 2.74021 12.0527 2.64645 12.1464C2.55268 12.2402 2.5 12.3674 2.5 12.5C2.5 12.6326 2.55268 12.7598 2.64645 12.8536C2.74021 12.9473 2.86739 13 3 13H5C5.13261 13 5.25979 12.9473 5.35355 12.8536C5.44732 12.7598 5.5 12.6326 5.5 12.5C5.5 12.3674 5.44732 12.2402 5.35355 12.1464C5.25979 12.0527 5.13261 12 5 12ZM5 16H3C2.86739 16 2.74021 16.0527 2.64645 16.1464C2.55268 16.2402 2.5 16.3674 2.5 16.5C2.5 16.6326 2.55268 16.7598 2.64645 16.8536C2.74021 16.9473 2.86739 17 3 17H5C5.13261 17 5.25979 16.9473 5.35355 16.8536C5.44732 16.7598 5.5 16.6326 5.5 16.5C5.5 16.3674 5.44732 16.2402 5.35355 16.1464C5.25979 16.0527 5.13261 16 5 16V16ZM5 20H3C2.86739 20 2.74021 20.0527 2.64645 20.1464C2.55268 20.2402 2.5 20.3674 2.5 20.5C2.5 20.6326 2.55268 20.7598 2.64645 20.8536C2.74021 20.9473 2.86739 21 3 21H5C5.13261 21 5.25979 20.9473 5.35355 20.8536C5.44732 20.7598 5.5 20.6326 5.5 20.5C5.5 20.3674 5.44732 20.2402 5.35355 20.1464C5.25979 20.0527 5.13261 20 5 20ZM5 24H3C2.86739 24 2.74021 24.0527 2.64645 24.1464C2.55268 24.2402 2.5 24.3674 2.5 24.5C2.5 24.6326 2.55268 24.7598 2.64645 24.8536C2.74021 24.9473 2.86739 25 3 25H5C5.13261 25 5.25979 24.9473 5.35355 24.8536C5.44732 24.7598 5.5 24.6326 5.5 24.5C5.5 24.3674 5.44732 24.2402 5.35355 24.1464C5.25979 24.0527 5.13261 24 5 24ZM5 28H3C2.86739 28 2.74021 28.0527 2.64645 28.1464C2.55268 28.2402 2.5 28.3674 2.5 28.5C2.5 28.6326 2.55268 28.7598 2.64645 28.8536C2.74021 28.9473 2.86739 29 3 29H5C5.13261 29 5.25979 28.9473 5.35355 28.8536C5.44732 28.7598 5.5 28.6326 5.5 28.5C5.5 28.3674 5.44732 28.2402 5.35355 28.1464C5.25979 28.0527 5.13261 28 5 28ZM32 9H34C34.1326 9 34.2598 8.94732 34.3536 8.85355C34.4473 8.75979 34.5 8.63261 34.5 8.5C34.5 8.36739 34.4473 8.24021 34.3536 8.14645C34.2598 8.05268 34.1326 8 34 8H32C31.8674 8 31.7402 8.05268 31.6464 8.14645C31.5527 8.24021 31.5 8.36739 31.5 8.5C31.5 8.63261 31.5527 8.75979 31.6464 8.85355C31.7402 8.94732 31.8674 9 32 9ZM32 5H34C34.1326 5 34.2598 4.94732 34.3536 4.85355C34.4473 4.75979 34.5 4.63261 34.5 4.5C34.5 4.36739 34.4473 4.24021 34.3536 4.14645C34.2598 4.05268 34.1326 4 34 4H32C31.8674 4 31.7402 4.05268 31.6464 4.14645C31.5527 4.24021 31.5 4.36739 31.5 4.5C31.5 4.63261 31.5527 4.75979 31.6464 4.85355C31.7402 4.94732 31.8674 5 32 5ZM32 13H34C34.1326 13 34.2598 12.9473 34.3536 12.8536C34.4473 12.7598 34.5 12.6326 34.5 12.5C34.5 12.3674 34.4473 12.2402 34.3536 12.1464C34.2598 12.0527 34.1326 12 34 12H32C31.8674 12 31.7402 12.0527 31.6464 12.1464C31.5527 12.2402 31.5 12.3674 31.5 12.5C31.5 12.6326 31.5527 12.7598 31.6464 12.8536C31.7402 12.9473 31.8674 13 32 13ZM32 17H34C34.1326 17 34.2598 16.9473 34.3536 16.8536C34.4473 16.7598 34.5 16.6326 34.5 16.5C34.5 16.3674 34.4473 16.2402 34.3536 16.1464C34.2598 16.0527 34.1326 16 34 16H32C31.8674 16 31.7402 16.0527 31.6464 16.1464C31.5527 16.2402 31.5 16.3674 31.5 16.5C31.5 16.6326 31.5527 16.7598 31.6464 16.8536C31.7402 16.9473 31.8674 17 32 17ZM32 21H34C34.1326 21 34.2598 20.9473 34.3536 20.8536C34.4473 20.7598 34.5 20.6326 34.5 20.5C34.5 20.3674 34.4473 20.2402 34.3536 20.1464C34.2598 20.0527 34.1326 20 34 20H32C31.8674 20 31.7402 20.0527 31.6464 20.1464C31.5527 20.2402 31.5 20.3674 31.5 20.5C31.5 20.6326 31.5527 20.7598 31.6464 20.8536C31.7402 20.9473 31.8674 21 32 21ZM32 25H34C34.1326 25 34.2598 24.9473 34.3536 24.8536C34.4473 24.7598 34.5 24.6326 34.5 24.5C34.5 24.3674 34.4473 24.2402 34.3536 24.1464C34.2598 24.0527 34.1326 24 34 24H32C31.8674 24 31.7402 24.0527 31.6464 24.1464C31.5527 24.2402 31.5 24.3674 31.5 24.5C31.5 24.6326 31.5527 24.7598 31.6464 24.8536C31.7402 24.9473 31.8674 25 32 25ZM34 28H32C31.8674 28 31.7402 28.0527 31.6464 28.1464C31.5527 28.2402 31.5 28.3674 31.5 28.5C31.5 28.6326 31.5527 28.7598 31.6464 28.8536C31.7402 28.9473 31.8674 29 32 29H34C34.1326 29 34.2598 28.9473 34.3536 28.8536C34.4473 28.7598 34.5 28.6326 34.5 28.5C34.5 28.3674 34.4473 28.2402 34.3536 28.1464C34.2598 28.0527 34.1326 28 34 28Z" fill="#111111"/>
</svg>
