<svg width="37" height="37" viewBox="0 0 37 37" fill="none" xmlns="http://www.w3.org/2000/svg">
<g clip-path="url(#clip0_16_26)">
<path d="M37.375 10.3594V19.6094C37.375 19.7627 37.3141 19.9098 37.2057 20.0182C37.0973 20.1266 36.9502 20.1875 36.7969 20.1875C36.6435 20.1875 36.4965 20.1266 36.3881 20.0182C36.2797 19.9098 36.2188 19.7627 36.2188 19.6094V10.3594C36.2188 10.206 36.2797 10.059 36.3881 9.95058C36.4965 9.84216 36.6435 9.78125 36.7969 9.78125C36.9502 9.78125 37.0973 9.84216 37.2057 9.95058C37.3141 10.059 37.375 10.206 37.375 10.3594ZM32.75 6.89062V23.0781C32.7462 23.8436 32.4404 24.5766 31.8992 25.1179C31.3579 25.6592 30.6248 25.965 29.8594 25.9688H7.89062C7.12515 25.965 6.39212 25.6592 5.85084 25.1179C5.30957 24.5766 5.0038 23.8436 5 23.0781V6.89062C5.0038 6.12515 5.30957 5.39212 5.85084 4.85084C6.39212 4.30957 7.12515 4.0038 7.89062 4H29.8594C30.6248 4.0038 31.3579 4.30957 31.8992 4.85084C32.4404 5.39212 32.7462 6.12515 32.75 6.89062V6.89062ZM31.5938 6.89062C31.5937 6.43064 31.411 5.98949 31.0858 5.66424C30.7605 5.33898 30.3194 5.15625 29.8594 5.15625H7.89062C7.43064 5.15625 6.98949 5.33898 6.66424 5.66424C6.33898 5.98949 6.15625 6.43064 6.15625 6.89062V23.0781C6.15625 23.5381 6.33898 23.9793 6.66424 24.3045C6.98949 24.6298 7.43064 24.8125 7.89062 24.8125H29.8594C30.3194 24.8125 30.7605 24.6298 31.0858 24.3045C31.411 23.9793 31.5938 23.5381 31.5938 23.0781V6.89062ZM21.5344 8.625C21.381 8.625 21.234 8.68591 21.1256 8.79433C21.0172 8.90275 20.9562 9.0498 20.9562 9.20312V20.7656C20.9562 20.919 21.0172 21.066 21.1256 21.1744C21.234 21.2828 21.381 21.3438 21.5344 21.3438C21.6877 21.3438 21.8348 21.2828 21.9432 21.1744C22.0516 21.066 22.1125 20.919 22.1125 20.7656V9.20312C22.1125 9.0498 22.0516 8.90275 21.9432 8.79433C21.8348 8.68591 21.6877 8.625 21.5344 8.625ZM16.2156 8.625C16.0623 8.625 15.9152 8.68591 15.8068 8.79433C15.6984 8.90275 15.6375 9.0498 15.6375 9.20312V20.7656C15.6375 20.919 15.6984 21.066 15.8068 21.1744C15.9152 21.2828 16.0623 21.3438 16.2156 21.3438C16.369 21.3438 16.516 21.2828 16.6244 21.1744C16.7328 21.066 16.7937 20.919 16.7937 20.7656V9.20312C16.7937 9.0498 16.7328 8.90275 16.6244 8.79433C16.516 8.68591 16.369 8.625 16.2156 8.625ZM10.8969 8.625C10.7435 8.625 10.5965 8.68591 10.4881 8.79433C10.3797 8.90275 10.3188 9.0498 10.3188 9.20312V20.7656C10.3188 20.919 10.3797 21.066 10.4881 21.1744C10.5965 21.2828 10.7435 21.3438 10.8969 21.3438C11.0502 21.3438 11.1973 21.2828 11.3057 21.1744C11.4141 21.066 11.475 20.919 11.475 20.7656V9.20312C11.475 9.0498 11.4141 8.90275 11.3057 8.79433C11.1973 8.68591 11.0502 8.625 10.8969 8.625ZM26.8531 8.625C26.6998 8.625 26.5527 8.68591 26.4443 8.79433C26.3359 8.90275 26.275 9.0498 26.275 9.20312V20.7656C26.275 20.919 26.3359 21.066 26.4443 21.1744C26.5527 21.2828 26.6998 21.3438 26.8531 21.3438C27.0065 21.3438 27.1535 21.2828 27.2619 21.1744C27.3703 21.066 27.4312 20.919 27.4312 20.7656V9.20312C27.4312 9.0498 27.3703 8.90275 27.2619 8.79433C27.1535 8.68591 27.0065 8.625 26.8531 8.625Z" fill="#111111"/>
</g>
<defs>
<clipPath id="clip0_16_26">
<rect width="37" height="37" fill="white"/>
</clipPath>
</defs>
</svg>
