<svg width="37" height="37" viewBox="0 0 37 37" fill="none" xmlns="http://www.w3.org/2000/svg">
<path d="M31.9668 5.6117H5.03385C4.64051 5.61099 4.26177 5.76066 3.97517 6.03006C3.68857 6.29946 3.51579 6.66823 3.49219 7.06086V24.2119C3.51579 24.6045 3.68857 24.9733 3.97517 25.2427C4.26177 25.5121 4.64051 25.6618 5.03385 25.6611H7.04573V31.3884L13.4051 25.6611H31.9668C32.3601 25.6618 32.7388 25.5121 33.0255 25.2427C33.3121 24.9733 33.4848 24.6045 33.5084 24.2119V7.06086C33.4848 6.66823 33.3121 6.29946 33.0255 6.03006C32.7388 5.76066 32.3601 5.61099 31.9668 5.6117ZM9.28885 13.8057H11.9097C13.6055 13.8057 14.0141 14.6459 14.0141 15.3088C14.0141 16.2415 13.4051 17.259 11.2699 17.259H8.54115L9.28885 13.8057ZM12.218 12.0713H9.48927L10.2601 8.62565H12.8809C14.5845 8.62565 14.993 9.45816 14.993 10.1211C14.9622 11.0615 14.3532 12.0713 12.218 12.0713V12.0713ZM17.3132 22.6548H14.5845L15.3553 19.2015H17.9761C19.6566 19.2015 20.042 20.0417 20.042 20.7046C20.042 21.645 19.4484 22.6548 17.3132 22.6548ZM18.3307 17.259H15.602L16.3728 13.8057H19.0014C20.6972 13.8057 21.1057 14.6459 21.1057 15.3088C21.0749 16.2415 20.4659 17.259 18.3307 17.259ZM19.2711 12.0713H16.5501L17.3209 8.62565H19.9418C21.6453 8.62565 22.0461 9.45816 22.0461 10.1211C22.0153 11.0615 21.4141 12.0713 19.2711 12.0713V12.0713ZM24.667 20.5504H21.9691L22.7399 17.1048H25.3607C27.0643 17.1048 27.4651 17.945 27.4651 18.6002C27.4343 19.5407 26.833 20.5504 24.667 20.5504V20.5504ZM25.6845 15.1546H22.9866L23.7574 11.7013H26.3782C28.0741 11.7013 28.4826 12.5415 28.4826 13.2044C28.4595 14.1448 27.8505 15.1546 25.7153 15.1546H25.6845Z" stroke="#111111" stroke-linecap="round" stroke-linejoin="round"/>
</svg>
