<svg width="428" height="529" viewBox="0 0 428 529" fill="none" xmlns="http://www.w3.org/2000/svg">
<path d="M420.985 219.078C420.978 221.758 420.485 224.325 419.505 226.803C418.505 229.258 417.124 231.447 415.3 233.325C413.497 235.224 411.399 236.68 409.048 237.693C406.677 238.705 404.222 239.208 401.662 239.201C399.103 239.194 396.65 238.679 394.284 237.654C391.918 236.629 389.848 235.162 388.034 233.253C386.241 231.366 384.851 229.17 383.885 226.709C382.897 224.226 382.417 221.656 382.424 218.977C382.431 216.297 382.925 213.73 383.925 211.252C384.905 208.796 386.307 206.608 388.11 204.73C389.934 202.831 392.011 201.375 394.382 200.362C396.754 199.35 399.209 198.847 401.769 198.854C404.328 198.86 406.78 199.376 409.147 200.401C411.492 201.426 413.582 202.893 415.375 204.802C417.189 206.689 418.558 208.885 419.546 211.346C420.513 213.829 420.992 216.399 420.985 219.078Z" fill="white"/>
<path d="M401.784 192.786C393.873 192.765 386.734 196.577 381.895 203.031C378.413 207.672 376.664 213.115 376.649 218.961C376.633 225.007 378.543 230.681 382 235.119L351.053 275.607C343.708 285.287 343.673 298.596 350.966 308.314L374.217 338.847C378.053 344.105 378.034 351.369 374.171 356.408L343.414 396.674C341.461 399.304 341.853 403.136 344.344 405.158C345.505 405.981 346.646 406.582 347.999 406.585C349.734 406.59 351.471 405.797 352.447 404.382L383.204 364.094C390.548 354.414 390.583 341.105 383.29 331.386L360.039 300.853C356.204 295.595 356.223 288.331 360.086 283.293L391.033 242.805C394.308 244.43 397.774 245.458 401.645 245.468C415.521 245.505 426.741 233.82 426.78 219.293C426.818 204.766 415.66 192.823 401.784 192.786ZM401.677 233.156C394.147 233.136 388.199 226.853 388.219 218.992C388.228 215.759 389.187 212.949 390.929 210.318C393.645 206.893 397.5 204.888 401.752 204.899C409.261 204.919 415.231 211.202 415.21 219.063C415.189 226.924 409.186 233.176 401.677 233.156Z" fill="#444B54"/>
<path d="M316.863 446.873C315.7 446.87 314.347 446.468 313.397 445.646C310.885 443.624 310.515 439.792 312.447 437.162L324.44 421.05C326.393 418.442 330.054 418.031 332.544 420.075C335.056 422.097 335.427 425.929 333.495 428.537L321.501 444.671C320.144 446.062 318.407 446.877 316.863 446.873Z" fill="#444B54"/>
<path d="M329.264 276.147C327.53 276.142 325.797 275.341 324.828 273.921L308.513 252.286C306.595 249.646 306.986 245.816 309.487 243.808C312.01 241.799 315.668 242.207 317.586 244.848L333.922 266.482C335.84 269.1 335.449 272.952 332.927 274.961C331.762 275.556 330.618 276.15 329.264 276.147Z" fill="#444B54"/>
<path d="M420.517 396.479C418.782 396.475 417.05 395.673 416.102 394.253L400.335 373.417C398.417 370.799 398.808 366.969 401.33 364.939C403.831 362.93 407.49 363.338 409.429 365.979L425.175 386.814C427.093 389.432 426.702 393.262 424.179 395.271C423.035 396.087 421.871 396.483 420.517 396.479Z" fill="#444B54"/>
<path d="M189.187 390.022L189.347 329.479L208.726 296.224L189.523 262.868L189.613 228.566L247.465 228.718C268.66 228.774 285.957 246.979 285.899 269.19L285.579 390.277L189.187 390.022Z" fill="#FCCA3D"/>
<path d="M285.579 390.277L198.833 390.048L198.897 365.821C198.906 362.389 201.43 359.783 204.708 359.791L222.053 359.837C225.332 359.846 227.835 357.217 227.844 353.785L228.11 252.871C228.119 249.439 230.644 246.833 233.922 246.841L276.333 246.953C281.727 246.967 285.946 251.408 285.931 257.077L285.579 390.277Z" fill="#EF7D00"/>
<path d="M189.348 329.479L189.523 262.868L228.084 262.969C238.682 262.997 247.351 272.1 247.322 283.194L247.253 309.436C247.224 320.552 238.506 329.609 227.909 329.581L189.348 329.479Z" fill="white"/>
<path d="M208.639 329.53L208.751 287.145C208.76 283.712 211.263 281.084 214.541 281.092L247.328 281.179L247.253 309.436C247.224 320.552 238.506 329.609 227.909 329.581L208.639 329.53Z" fill="#E4E4E7"/>
<path d="M227.892 335.626L189.332 335.524C186.053 335.516 183.564 332.896 183.573 329.464C183.582 326.031 186.085 323.402 189.363 323.411L227.924 323.513C235.455 323.533 241.436 317.304 241.457 309.42L241.526 283.179C241.547 275.317 235.599 269.057 228.068 269.037L189.507 268.935C186.229 268.927 183.74 266.285 183.749 262.852C183.758 259.42 186.261 256.813 189.539 256.822L228.1 256.924C241.976 256.961 253.135 268.682 253.097 283.209L253.027 309.451C252.989 324 241.769 335.663 227.892 335.626Z" fill="#444B54"/>
<path d="M285.563 396.322L189.171 396.068C185.892 396.059 183.403 393.439 183.412 390.007C183.421 386.575 185.924 383.946 189.203 383.955L279.82 384.194L280.124 269.174C280.174 250.196 265.556 234.812 247.449 234.764L189.597 234.611C186.319 234.602 183.829 231.983 183.838 228.55C183.848 225.118 186.35 222.489 189.629 222.498L247.481 222.651C271.955 222.715 291.762 243.562 291.694 269.205L291.375 390.292C291.365 393.724 288.841 396.331 285.563 396.322Z" fill="#444B54"/>
<path d="M256.743 359.929C256.74 361.257 256.504 362.541 256.014 363.78C255.503 365.019 254.823 366.102 253.911 367.052C252.999 368.002 251.961 368.73 250.775 369.236C249.589 369.742 248.361 369.982 247.092 369.979C245.802 369.976 244.576 369.729 243.393 369.216C242.209 368.704 241.175 367.97 240.268 367.016C239.382 366.061 238.687 364.974 238.204 363.733C237.699 362.491 237.47 361.206 237.473 359.878C237.477 358.527 237.713 357.243 238.224 356.004C238.714 354.788 239.415 353.682 240.305 352.755C241.218 351.805 242.256 351.077 243.442 350.571C244.628 350.064 245.855 349.802 247.146 349.805C248.415 349.809 249.641 350.078 250.824 350.59C252.007 351.102 253.042 351.836 253.949 352.791C254.856 353.723 255.53 354.832 256.034 356.051C256.518 357.293 256.747 358.578 256.743 359.929Z" fill="white"/>
<path d="M269.083 437.468L251.791 409.166C250.064 406.326 246.407 405.52 243.906 407.329C241.194 409.138 240.422 412.967 242.15 415.584L245.014 420.442L189.108 420.294C185.829 420.285 183.326 422.892 183.317 426.324C183.308 429.757 185.797 432.398 189.076 432.407L252.512 432.575L259.42 443.887C260.388 445.705 262.31 446.729 264.235 446.734C265.399 446.737 266.352 446.341 267.326 445.723C270.017 443.915 270.81 440.285 269.083 437.468Z" fill="#444B54"/>
</svg>
