<svg width="37" height="37" viewBox="0 0 37 37" fill="none" xmlns="http://www.w3.org/2000/svg">
<path d="M22.3545 4.62495L20.8128 9.24995L19.2712 4.62495C19.1907 4.38108 19.1693 4.1216 19.2086 3.86783C19.2479 3.61407 19.3469 3.37325 19.4974 3.16515C19.6478 2.95706 19.8455 2.78764 20.0742 2.6708C20.3029 2.55396 20.556 2.49304 20.8128 2.49304C21.0696 2.49304 21.3228 2.55396 21.5514 2.6708C21.7801 2.78764 21.9778 2.95706 22.1283 3.16515C22.2788 3.37325 22.3777 3.61407 22.4171 3.86783C22.4564 4.1216 22.4349 4.38108 22.3545 4.62495V4.62495ZM30.624 9.32704L26.2626 11.5085L28.4441 7.14712C28.646 6.77751 28.9833 6.50062 29.3852 6.37471C29.7871 6.24879 30.2222 6.28368 30.5989 6.47202C30.9755 6.66037 31.2645 6.98749 31.4049 7.38454C31.5453 7.7816 31.5262 8.21764 31.3517 8.60091C31.1941 8.91532 30.9387 9.17012 30.624 9.32704ZM33.1462 18.5L28.5212 16.9583L33.1462 15.4166C33.3904 15.3353 33.6505 15.3131 33.905 15.352C34.1594 15.3909 34.4011 15.4897 34.6099 15.6402C34.8187 15.7908 34.9888 15.9888 35.1061 16.2179C35.2233 16.4471 35.2845 16.7009 35.2845 16.9583C35.2845 17.2157 35.2233 17.4695 35.1061 17.6986C34.9888 17.9278 34.8187 18.1258 34.6099 18.2764C34.4011 18.4269 34.1594 18.5257 33.905 18.5646C33.6505 18.6034 33.3904 18.5813 33.1462 18.5V18.5ZM13.1816 7.14712L15.363 11.5085L11.0017 9.32704C10.7704 9.2123 10.5698 9.04417 10.4165 8.83655C10.2631 8.62893 10.1613 8.38779 10.1196 8.13305C10.0778 7.87832 10.0973 7.61731 10.1765 7.3716C10.2556 7.12589 10.392 6.90255 10.5746 6.72002C10.7571 6.53749 10.9804 6.40103 11.2261 6.32192C11.4718 6.2428 11.7329 6.22331 11.9876 6.26504C12.2423 6.30677 12.4835 6.40853 12.6911 6.56192C12.8987 6.7153 13.0668 6.9159 13.1816 7.14712V7.14712ZM27.405 19.0272C27.6193 18.3735 27.7503 17.6844 27.7503 16.9583C27.7503 13.1334 24.6377 10.0208 20.8128 10.0208C18.747 10.0208 16.9016 10.9365 15.6374 12.3765L15.417 12.3333C14.1148 12.3342 12.8275 12.6109 11.64 13.1453C10.4524 13.6796 9.39159 14.4595 8.52728 15.4336C8.24007 15.3275 7.92873 15.3048 7.62916 15.368C7.32958 15.4312 7.05394 15.5777 6.83401 15.7907C6.61408 16.0037 6.45881 16.2745 6.38607 16.5719C6.31334 16.8693 6.32611 17.1812 6.42291 17.4717C6.51078 17.7291 6.66649 17.9326 6.84995 18.1053C6.39963 19.2096 6.1677 20.3907 6.16699 21.5833L6.17007 21.7775C4.84645 22.1205 3.674 22.8929 2.83648 23.9737C1.99895 25.0545 1.54367 26.3826 1.54199 27.75C1.54199 31.1509 4.30928 33.9166 7.70866 33.9166H24.667C28.9174 33.9166 32.3753 30.4587 32.3753 26.2083C32.3753 22.9261 30.3033 20.1357 27.405 19.0272V19.0272ZM20.8128 13.1041C22.9388 13.1041 24.667 14.8323 24.667 16.9583C24.667 17.5225 24.519 18.0467 24.3001 18.5292C23.7543 18.5616 23.1901 18.6433 22.5765 18.8191C22.18 17.7881 21.5663 16.8545 20.7771 16.0818C19.9878 15.309 19.0415 14.7151 18.0024 14.3405C18.3602 13.9518 18.7946 13.6412 19.2783 13.4285C19.762 13.2157 20.2844 13.1053 20.8128 13.1041ZM24.667 30.8333H7.70866C6.00666 30.8333 4.62533 29.4504 4.62533 27.75C4.62533 26.0495 6.00666 24.6666 7.56682 24.6574L9.75907 24.682L9.37674 22.829C9.19326 21.9324 9.21136 21.0063 9.42972 20.1177C9.64808 19.229 10.0612 18.4 10.6393 17.6906C11.2174 16.9812 11.9459 16.4092 12.7722 16.0159C13.5985 15.6226 14.5019 15.4179 15.417 15.4166L15.5234 15.395C16.9398 15.4289 18.3017 15.9481 19.3812 16.8657C20.4608 17.7834 21.1925 19.0438 21.4542 20.4363L21.5127 20.723C21.604 21.0394 21.7956 21.3175 22.0586 21.5155C22.3217 21.7134 22.6419 21.8206 22.9712 21.8207L23.4167 21.7852C23.8977 21.6465 24.2939 21.5833 24.667 21.5833C27.2169 21.5833 29.292 23.6584 29.292 26.2083C29.292 28.7582 27.2169 30.8333 24.667 30.8333Z" fill="#111111"/>
</svg>
